<?xml version="1.0" encoding="UTF-8" standalone="no"?>
<!DOCTYPE svg PUBLIC "-//W3C//DTD SVG 1.1//EN"
 "http://www.w3.org/Graphics/SVG/1.1/DTD/svg11.dtd">
<!-- Generated by graphviz version 7.0.5 (20221223.1930)
 -->
<!-- Title: include/materials/CDTauMaterial.h Pages: 1 -->
<svg width="789pt" height="137pt"
 viewBox="0.00 0.00 789.00 137.00" xmlns="http://www.w3.org/2000/svg" xmlns:xlink="http://www.w3.org/1999/xlink">
<g id="graph0" class="graph" transform="scale(1 1) rotate(0) translate(4 133)">
<title>include/materials/CDTauMaterial.h</title>
<!-- Node1 -->
<g id="node1" class="node">
<title>Node1</title>
<g id="a_node1"><a xlink:title=" ">
<polygon fill="#999999" stroke="#666666" points="502.5,-129 337.5,-129 337.5,-110 502.5,-110 502.5,-129"/>
<text text-anchor="middle" x="420" y="-117" font-family="Helvetica,sans-Serif" font-size="10.00">include/materials/CDTauMaterial.h</text>
</a>
</g>
</g>
<!-- Node2 -->
<g id="node2" class="node">
<title>Node2</title>
<g id="a_node2"><a xlink:title=" ">
<polygon fill="#e0e0e0" stroke="#999999" points="96,-19 0,-19 0,0 96,0 96,-19"/>
<text text-anchor="middle" x="48" y="-7" font-family="Helvetica,sans-Serif" font-size="10.00">InputParameters.h</text>
</a>
</g>
</g>
<!-- Node1&#45;&gt;Node2 -->
<g id="edge1" class="edge">
<title>Node1&#45;&gt;Node2</title>
<path fill="none" stroke="#63b8ff" d="M389.24,-109.57C322.68,-90.25 165.21,-44.53 89.75,-22.62"/>
<polygon fill="#63b8ff" stroke="#63b8ff" points="90.83,-19.29 80.25,-19.86 88.88,-26.01 90.83,-19.29"/>
</g>
<!-- Node3 -->
<g id="node3" class="node">
<title>Node3</title>
<g id="a_node3"><a xlink:title=" ">
<polygon fill="#e0e0e0" stroke="#999999" points="235.5,-19 114.5,-19 114.5,0 235.5,0 235.5,-19"/>
<text text-anchor="middle" x="175" y="-7" font-family="Helvetica,sans-Serif" font-size="10.00">NonlinearSystemBase.h</text>
</a>
</g>
</g>
<!-- Node1&#45;&gt;Node3 -->
<g id="edge2" class="edge">
<title>Node1&#45;&gt;Node3</title>
<path fill="none" stroke="#63b8ff" d="M399.95,-109.66C357.15,-90.79 256.6,-46.47 205.69,-24.03"/>
<polygon fill="#63b8ff" stroke="#63b8ff" points="207.27,-20.9 196.71,-20.07 204.45,-27.31 207.27,-20.9"/>
</g>
<!-- Node4 -->
<g id="node4" class="node">
<title>Node4</title>
<g id="a_node4"><a xlink:title=" ">
<polygon fill="#e0e0e0" stroke="#999999" points="348.5,-19 253.5,-19 253.5,0 348.5,0 348.5,-19"/>
<text text-anchor="middle" x="301" y="-7" font-family="Helvetica,sans-Serif" font-size="10.00">FEProblemBase.h</text>
</a>
</g>
</g>
<!-- Node1&#45;&gt;Node4 -->
<g id="edge3" class="edge">
<title>Node1&#45;&gt;Node4</title>
<path fill="none" stroke="#63b8ff" d="M408.6,-109.57C397.51,-100.77 380.28,-86.82 366,-74 349.02,-58.76 330.48,-40.47 317.56,-27.45"/>
<polygon fill="#63b8ff" stroke="#63b8ff" points="320.18,-25.11 310.67,-20.45 315.19,-30.03 320.18,-25.11"/>
</g>
<!-- Node5 -->
<g id="node5" class="node">
<title>Node5</title>
<g id="a_node5"><a xlink:title=" ">
<polygon fill="#e0e0e0" stroke="#999999" points="586.5,-19 491.5,-19 491.5,0 586.5,0 586.5,-19"/>
<text text-anchor="middle" x="539" y="-7" font-family="Helvetica,sans-Serif" font-size="10.00">MaterialProperty.h</text>
</a>
</g>
</g>
<!-- Node1&#45;&gt;Node5 -->
<g id="edge4" class="edge">
<title>Node1&#45;&gt;Node5</title>
<path fill="none" stroke="#63b8ff" d="M431.15,-109.51C442,-100.67 458.88,-86.69 473,-74 490.1,-58.63 508.94,-40.36 522.1,-27.37"/>
<polygon fill="#63b8ff" stroke="#63b8ff" points="524.51,-29.92 529.14,-20.39 519.58,-24.95 524.51,-29.92"/>
</g>
<!-- Node6 -->
<g id="node6" class="node">
<title>Node6</title>
<g id="a_node6"><a xlink:title=" ">
<polygon fill="#e0e0e0" stroke="#999999" points="681,-19 605,-19 605,0 681,0 681,-19"/>
<text text-anchor="middle" x="643" y="-7" font-family="Helvetica,sans-Serif" font-size="10.00">MooseArray.h</text>
</a>
</g>
</g>
<!-- Node1&#45;&gt;Node6 -->
<g id="edge5" class="edge">
<title>Node1&#45;&gt;Node6</title>
<path fill="none" stroke="#63b8ff" d="M438.25,-109.66C476.96,-90.91 567.58,-47.03 614.19,-24.45"/>
<polygon fill="#63b8ff" stroke="#63b8ff" points="615.66,-27.63 623.14,-20.12 612.61,-21.33 615.66,-27.63"/>
</g>
<!-- Node7 -->
<g id="node7" class="node">
<title>Node7</title>
<g id="a_node7"><a xlink:href="_s_a_tau_material_8h.html" target="_top" xlink:title=" ">
<polygon fill="white" stroke="#666666" points="464.5,-74 375.5,-74 375.5,-55 464.5,-55 464.5,-74"/>
<text text-anchor="middle" x="420" y="-62" font-family="Helvetica,sans-Serif" font-size="10.00">SATauMaterial.h</text>
</a>
</g>
</g>
<!-- Node1&#45;&gt;Node7 -->
<g id="edge6" class="edge">
<title>Node1&#45;&gt;Node7</title>
<path fill="none" stroke="#63b8ff" d="M420,-109.75C420,-103.27 420,-94.16 420,-85.9"/>
<polygon fill="#63b8ff" stroke="#63b8ff" points="423.5,-85.96 420,-75.96 416.5,-85.96 423.5,-85.96"/>
</g>
<!-- Node9 -->
<g id="node9" class="node">
<title>Node9</title>
<g id="a_node9"><a xlink:title=" ">
<polygon fill="#e0e0e0" stroke="#999999" points="781,-19 699,-19 699,0 781,0 781,-19"/>
<text text-anchor="middle" x="740" y="-7" font-family="Helvetica,sans-Serif" font-size="10.00">libmesh/elem.h</text>
</a>
</g>
</g>
<!-- Node1&#45;&gt;Node9 -->
<g id="edge14" class="edge">
<title>Node1&#45;&gt;Node9</title>
<path fill="none" stroke="#63b8ff" d="M446.46,-109.57C503.36,-90.36 637.51,-45.09 702.88,-23.03"/>
<polygon fill="#63b8ff" stroke="#63b8ff" points="703.72,-26.44 712.08,-19.92 701.48,-19.81 703.72,-26.44"/>
</g>
<!-- Node7&#45;&gt;Node2 -->
<g id="edge7" class="edge">
<title>Node7&#45;&gt;Node2</title>
<path fill="none" stroke="#63b8ff" d="M375.12,-57.27C316.16,-49.06 209.07,-34.07 107.3,-19.32"/>
<polygon fill="#63b8ff" stroke="#63b8ff" points="108.1,-15.9 97.7,-17.93 107.09,-22.83 108.1,-15.9"/>
</g>
<!-- Node7&#45;&gt;Node3 -->
<g id="edge8" class="edge">
<title>Node7&#45;&gt;Node3</title>
<path fill="none" stroke="#63b8ff" d="M378.44,-54.51C336.78,-45.5 272.52,-31.6 227.39,-21.83"/>
<polygon fill="#63b8ff" stroke="#63b8ff" points="228.35,-18.46 217.83,-19.77 226.87,-25.3 228.35,-18.46"/>
</g>
<!-- Node7&#45;&gt;Node4 -->
<g id="edge9" class="edge">
<title>Node7&#45;&gt;Node4</title>
<path fill="none" stroke="#63b8ff" d="M399.81,-54.51C380.98,-46.12 352.63,-33.5 331.13,-23.92"/>
<polygon fill="#63b8ff" stroke="#63b8ff" points="332.83,-20.85 322.27,-19.97 329.98,-27.24 332.83,-20.85"/>
</g>
<!-- Node7&#45;&gt;Node5 -->
<g id="edge10" class="edge">
<title>Node7&#45;&gt;Node5</title>
<path fill="none" stroke="#63b8ff" d="M440.19,-54.51C459.02,-46.12 487.37,-33.5 508.87,-23.92"/>
<polygon fill="#63b8ff" stroke="#63b8ff" points="510.02,-27.24 517.73,-19.97 507.17,-20.85 510.02,-27.24"/>
</g>
<!-- Node7&#45;&gt;Node6 -->
<g id="edge11" class="edge">
<title>Node7&#45;&gt;Node6</title>
<path fill="none" stroke="#63b8ff" d="M457.83,-54.51C495.43,-45.57 553.25,-31.83 594.27,-22.08"/>
<polygon fill="#63b8ff" stroke="#63b8ff" points="594.97,-25.51 603.89,-19.8 593.35,-18.7 594.97,-25.51"/>
</g>
<!-- Node8 -->
<g id="node8" class="node">
<title>Node8</title>
<g id="a_node8"><a xlink:title=" ">
<polygon fill="#e0e0e0" stroke="#999999" points="473,-19 367,-19 367,0 473,0 473,-19"/>
<text text-anchor="middle" x="420" y="-7" font-family="Helvetica,sans-Serif" font-size="10.00">INSADTauMaterial.h</text>
</a>
</g>
</g>
<!-- Node7&#45;&gt;Node8 -->
<g id="edge12" class="edge">
<title>Node7&#45;&gt;Node8</title>
<path fill="none" stroke="#63b8ff" d="M420,-54.75C420,-48.27 420,-39.16 420,-30.9"/>
<polygon fill="#63b8ff" stroke="#63b8ff" points="423.5,-30.96 420,-20.96 416.5,-30.96 423.5,-30.96"/>
</g>
<!-- Node7&#45;&gt;Node9 -->
<g id="edge13" class="edge">
<title>Node7&#45;&gt;Node9</title>
<path fill="none" stroke="#63b8ff" d="M464.92,-56.17C516.21,-47.78 602.95,-33.55 687.2,-19.46"/>
<polygon fill="#63b8ff" stroke="#63b8ff" points="687.75,-22.92 697.04,-17.82 686.6,-16.01 687.75,-22.92"/>
</g>
</g>
</svg>
