<?xml version="1.0" encoding="UTF-8" standalone="no"?>
<!DOCTYPE svg PUBLIC "-//W3C//DTD SVG 1.1//EN"
 "http://www.w3.org/Graphics/SVG/1.1/DTD/svg11.dtd">
<!-- Generated by graphviz version 7.0.5 (20221223.1930)
 -->
<!-- Title: src/materials/SATauMaterial.C Pages: 1 -->
<svg width="788pt" height="137pt"
 viewBox="0.00 0.00 788.00 137.00" xmlns="http://www.w3.org/2000/svg" xmlns:xlink="http://www.w3.org/1999/xlink">
<g id="graph0" class="graph" transform="scale(1 1) rotate(0) translate(4 133)">
<title>src/materials/SATauMaterial.C</title>
<!-- Node1 -->
<g id="node1" class="node">
<title>Node1</title>
<g id="a_node1"><a xlink:title=" ">
<polygon fill="#999999" stroke="#666666" points="576.5,-129 427.5,-129 427.5,-110 576.5,-110 576.5,-129"/>
<text text-anchor="middle" x="502" y="-117" font-family="Helvetica,sans-Serif" font-size="10.00">src/materials/SATauMaterial.C</text>
</a>
</g>
</g>
<!-- Node2 -->
<g id="node2" class="node">
<title>Node2</title>
<g id="a_node2"><a xlink:href="_s_a_tau_material_8h.html" target="_top" xlink:title=" ">
<polygon fill="white" stroke="#666666" points="510.5,-74 421.5,-74 421.5,-55 510.5,-55 510.5,-74"/>
<text text-anchor="middle" x="466" y="-62" font-family="Helvetica,sans-Serif" font-size="10.00">SATauMaterial.h</text>
</a>
</g>
</g>
<!-- Node1&#45;&gt;Node2 -->
<g id="edge1" class="edge">
<title>Node1&#45;&gt;Node2</title>
<path fill="none" stroke="#63b8ff" d="M496.06,-109.75C491.29,-102.73 484.44,-92.64 478.48,-83.87"/>
<polygon fill="#63b8ff" stroke="#63b8ff" points="481.44,-82 472.92,-75.69 475.65,-85.93 481.44,-82"/>
</g>
<!-- Node8 -->
<g id="node8" class="node">
<title>Node8</title>
<g id="a_node8"><a xlink:title=" ">
<polygon fill="#e0e0e0" stroke="#999999" points="780,-19 674,-19 674,0 780,0 780,-19"/>
<text text-anchor="middle" x="727" y="-7" font-family="Helvetica,sans-Serif" font-size="10.00">INSADTauMaterial.h</text>
</a>
</g>
</g>
<!-- Node1&#45;&gt;Node8 -->
<g id="edge9" class="edge">
<title>Node1&#45;&gt;Node8</title>
<path fill="none" stroke="#63b8ff" d="M520.41,-109.66C559.56,-90.87 651.29,-46.84 698.23,-24.31"/>
<polygon fill="#63b8ff" stroke="#63b8ff" points="699.47,-27.6 706.97,-20.12 696.44,-21.29 699.47,-27.6"/>
</g>
<!-- Node3 -->
<g id="node3" class="node">
<title>Node3</title>
<g id="a_node3"><a xlink:title=" ">
<polygon fill="#e0e0e0" stroke="#999999" points="96,-19 0,-19 0,0 96,0 96,-19"/>
<text text-anchor="middle" x="48" y="-7" font-family="Helvetica,sans-Serif" font-size="10.00">InputParameters.h</text>
</a>
</g>
</g>
<!-- Node2&#45;&gt;Node3 -->
<g id="edge2" class="edge">
<title>Node2&#45;&gt;Node3</title>
<path fill="none" stroke="#63b8ff" d="M421.21,-58.35C354.99,-50.65 226.79,-35.44 107.63,-19.33"/>
<polygon fill="#63b8ff" stroke="#63b8ff" points="108.38,-15.9 98,-18.02 107.44,-22.84 108.38,-15.9"/>
</g>
<!-- Node4 -->
<g id="node4" class="node">
<title>Node4</title>
<g id="a_node4"><a xlink:title=" ">
<polygon fill="#e0e0e0" stroke="#999999" points="235.5,-19 114.5,-19 114.5,0 235.5,0 235.5,-19"/>
<text text-anchor="middle" x="175" y="-7" font-family="Helvetica,sans-Serif" font-size="10.00">NonlinearSystemBase.h</text>
</a>
</g>
</g>
<!-- Node2&#45;&gt;Node4 -->
<g id="edge3" class="edge">
<title>Node2&#45;&gt;Node4</title>
<path fill="none" stroke="#63b8ff" d="M421.17,-55.33C371.35,-46.26 290.65,-31.56 235.32,-21.49"/>
<polygon fill="#63b8ff" stroke="#63b8ff" points="236.22,-18.09 225.75,-19.74 234.96,-24.98 236.22,-18.09"/>
</g>
<!-- Node5 -->
<g id="node5" class="node">
<title>Node5</title>
<g id="a_node5"><a xlink:title=" ">
<polygon fill="#e0e0e0" stroke="#999999" points="348.5,-19 253.5,-19 253.5,0 348.5,0 348.5,-19"/>
<text text-anchor="middle" x="301" y="-7" font-family="Helvetica,sans-Serif" font-size="10.00">FEProblemBase.h</text>
</a>
</g>
</g>
<!-- Node2&#45;&gt;Node5 -->
<g id="edge4" class="edge">
<title>Node2&#45;&gt;Node5</title>
<path fill="none" stroke="#63b8ff" d="M438.01,-54.51C410.91,-45.8 369.59,-32.53 339.42,-22.84"/>
<polygon fill="#63b8ff" stroke="#63b8ff" points="340.88,-19.64 330.29,-19.91 338.74,-26.3 340.88,-19.64"/>
</g>
<!-- Node6 -->
<g id="node6" class="node">
<title>Node6</title>
<g id="a_node6"><a xlink:title=" ">
<polygon fill="#e0e0e0" stroke="#999999" points="461.5,-19 366.5,-19 366.5,0 461.5,0 461.5,-19"/>
<text text-anchor="middle" x="414" y="-7" font-family="Helvetica,sans-Serif" font-size="10.00">MaterialProperty.h</text>
</a>
</g>
</g>
<!-- Node2&#45;&gt;Node6 -->
<g id="edge5" class="edge">
<title>Node2&#45;&gt;Node6</title>
<path fill="none" stroke="#63b8ff" d="M457.41,-54.75C450.16,-47.35 439.55,-36.54 430.63,-27.45"/>
<polygon fill="#63b8ff" stroke="#63b8ff" points="433.34,-25.21 423.83,-20.52 428.34,-30.11 433.34,-25.21"/>
</g>
<!-- Node7 -->
<g id="node7" class="node">
<title>Node7</title>
<g id="a_node7"><a xlink:title=" ">
<polygon fill="#e0e0e0" stroke="#999999" points="556,-19 480,-19 480,0 556,0 556,-19"/>
<text text-anchor="middle" x="518" y="-7" font-family="Helvetica,sans-Serif" font-size="10.00">MooseArray.h</text>
</a>
</g>
</g>
<!-- Node2&#45;&gt;Node7 -->
<g id="edge6" class="edge">
<title>Node2&#45;&gt;Node7</title>
<path fill="none" stroke="#63b8ff" d="M474.59,-54.75C481.84,-47.35 492.45,-36.54 501.37,-27.45"/>
<polygon fill="#63b8ff" stroke="#63b8ff" points="503.66,-30.11 508.17,-20.52 498.66,-25.21 503.66,-30.11"/>
</g>
<!-- Node2&#45;&gt;Node8 -->
<g id="edge7" class="edge">
<title>Node2&#45;&gt;Node8</title>
<path fill="none" stroke="#63b8ff" d="M510.28,-54.51C554.84,-45.46 623.69,-31.48 671.8,-21.71"/>
<polygon fill="#63b8ff" stroke="#63b8ff" points="672.36,-25.17 681.46,-19.75 670.96,-18.31 672.36,-25.17"/>
</g>
<!-- Node9 -->
<g id="node9" class="node">
<title>Node9</title>
<g id="a_node9"><a xlink:title=" ">
<polygon fill="#e0e0e0" stroke="#999999" points="656,-19 574,-19 574,0 656,0 656,-19"/>
<text text-anchor="middle" x="615" y="-7" font-family="Helvetica,sans-Serif" font-size="10.00">libmesh/elem.h</text>
</a>
</g>
</g>
<!-- Node2&#45;&gt;Node9 -->
<g id="edge8" class="edge">
<title>Node2&#45;&gt;Node9</title>
<path fill="none" stroke="#63b8ff" d="M491.28,-54.51C515.5,-45.89 552.3,-32.8 579.47,-23.14"/>
<polygon fill="#63b8ff" stroke="#63b8ff" points="580.42,-26.51 588.67,-19.87 578.08,-19.92 580.42,-26.51"/>
</g>
</g>
</svg>
